<svg height="512pt" viewBox="0 0 512 512" width="512pt" xmlns="http://www.w3.org/2000/svg"><path d="m256 142.003906h-109v359.992188h9v-59.996094h60v59.996094h40zm0 0" fill="#bf9a94" fill-rule="evenodd"/><path d="m456 10h-109v491.996094h9v-59.996094h59.996094v59.996094h40.003906zm0 0" fill="#ffdaae" fill-rule="evenodd"/><path d="m384 442h31.996094v59.996094h-31.996094zm0 0" fill="#96c8eb" fill-rule="evenodd"/><path d="m184 442h32v59.996094h-32zm0 0" fill="#96c8eb" fill-rule="evenodd"/><g fill="#000001"><path d="m96 207h15c5.523438 0 10-4.480469 10-10v-15c0-5.523438-4.476562-10-10-10h-15c-5.523438 0-10 4.476562-10 10v15c0 5.519531 4.476562 10 10 10zm0 0"/><path d="m96 267h15c5.523438 0 10-4.476562 10-10v-15c0-5.523438-4.476562-10-10-10h-15c-5.523438 0-10 4.476562-10 10v15c0 5.523438 4.476562 10 10 10zm0 0"/><path d="m96 326.996094h15c5.523438 0 10-4.476563 10-10v-14.996094c0-5.523438-4.476562-10-10-10h-15c-5.523438 0-10 4.476562-10 10v14.996094c0 5.523437 4.476562 10 10 10zm0 0"/><path d="m121 376.996094v-15c0-5.523438-4.476562-10-10-10h-15c-5.523438 0-10 4.476562-10 10v15c0 5.519531 4.476562 10 10 10h15c5.523438 0 10-4.480469 10-10zm0 0"/><path d="m148.5 207h15c5.523438 0 10-4.480469 10-10v-15c0-5.523438-4.476562-10-10-10h-15c-5.523438 0-10 4.476562-10 10v15c0 5.519531 4.476562 10 10 10zm0 0"/><path d="m148.5 267h15c5.523438 0 10-4.476562 10-10v-15c0-5.523438-4.476562-10-10-10h-15c-5.523438 0-10 4.476562-10 10v15c0 5.523438 4.476562 10 10 10zm0 0"/><path d="m148.5 326.996094h15c5.523438 0 10-4.476563 10-10v-14.996094c0-5.523438-4.476562-10-10-10h-15c-5.523438 0-10 4.476562-10 10v14.996094c0 5.523437 4.476562 10 10 10zm0 0"/><path d="m148.5 386.996094h15c5.523438 0 10-4.480469 10-10v-15c0-5.523438-4.476562-10-10-10h-15c-5.523438 0-10 4.476562-10 10v15c0 5.519531 4.476562 10 10 10zm0 0"/><path d="m201 207h15c5.523438 0 10-4.480469 10-10v-15c0-5.523438-4.476562-10-10-10h-15c-5.523438 0-10 4.476562-10 10v15c0 5.519531 4.476562 10 10 10zm0 0"/><path d="m201 267h15c5.523438 0 10-4.476562 10-10v-15c0-5.523438-4.476562-10-10-10h-15c-5.523438 0-10 4.476562-10 10v15c0 5.523438 4.476562 10 10 10zm0 0"/><path d="m201 326.996094h15c5.523438 0 10-4.476563 10-10v-14.996094c0-5.523438-4.476562-10-10-10h-15c-5.523438 0-10 4.476562-10 10v14.996094c0 5.523437 4.476562 10 10 10zm0 0"/><path d="m201 386.996094h15c5.523438 0 10-4.480469 10-10v-15c0-5.523438-4.476562-10-10-10h-15c-5.523438 0-10 4.476562-10 10v15c0 5.519531 4.476562 10 10 10zm0 0"/><path d="m296 207h15c5.523438 0 10-4.480469 10-10v-15c0-5.523438-4.476562-10-10-10h-15c-5.523438 0-10 4.476562-10 10v15c0 5.519531 4.476562 10 10 10zm0 0"/><path d="m296 147h15c5.523438 0 10-4.476562 10-10v-14.996094c0-5.523437-4.476562-10-10-10h-15c-5.523438 0-10 4.476563-10 10v14.996094c0 5.523438 4.476562 10 10 10zm0 0"/><path d="m296 87.003906h15c5.523438 0 10-4.476562 10-10v-15.003906c0-5.519531-4.476562-10-10-10h-15c-5.523438 0-10 4.480469-10 10v15.003906c0 5.523438 4.476562 10 10 10zm0 0"/><path d="m296 267h15c5.523438 0 10-4.476562 10-10v-15c0-5.523438-4.476562-10-10-10h-15c-5.523438 0-10 4.476562-10 10v15c0 5.523438 4.476562 10 10 10zm0 0"/><path d="m296 326.996094h15c5.523438 0 10-4.476563 10-10v-14.996094c0-5.523438-4.476562-10-10-10h-15c-5.523438 0-10 4.476562-10 10v14.996094c0 5.523437 4.476562 10 10 10zm0 0"/><path d="m296 386.996094h15c5.523438 0 10-4.480469 10-10v-15c0-5.523438-4.476562-10-10-10h-15c-5.523438 0-10 4.476562-10 10v15c0 5.519531 4.476562 10 10 10zm0 0"/><path d="m348.5 207h15c5.523438 0 10-4.480469 10-10v-15c0-5.523438-4.476562-10-10-10h-15c-5.523438 0-10 4.476562-10 10v15c0 5.519531 4.476562 10 10 10zm0 0"/><path d="m348.5 147h15c5.523438 0 10-4.476562 10-10v-14.996094c0-5.523437-4.476562-10-10-10h-15c-5.523438 0-10 4.476563-10 10v14.996094c0 5.523438 4.476562 10 10 10zm0 0"/><path d="m348.5 87.003906h15c5.523438 0 10-4.476562 10-10v-15.003906c0-5.519531-4.476562-10-10-10h-15c-5.523438 0-10 4.480469-10 10v15.003906c0 5.523438 4.476562 10 10 10zm0 0"/><path d="m348.5 267h15c5.523438 0 10-4.476562 10-10v-15c0-5.523438-4.476562-10-10-10h-15c-5.523438 0-10 4.476562-10 10v15c0 5.523438 4.476562 10 10 10zm0 0"/><path d="m348.5 326.996094h15c5.523438 0 10-4.476563 10-10v-14.996094c0-5.523438-4.476562-10-10-10h-15c-5.523438 0-10 4.476562-10 10v14.996094c0 5.523437 4.476562 10 10 10zm0 0"/><path d="m348.5 386.996094h15c5.523438 0 10-4.480469 10-10v-15c0-5.523438-4.476562-10-10-10h-15c-5.523438 0-10 4.476562-10 10v15c0 5.519531 4.476562 10 10 10zm0 0"/><path d="m401 207h14.996094c5.523437 0 10-4.480469 10-10v-15c0-5.523438-4.476563-10-10-10h-14.996094c-5.523438 0-10 4.476562-10 10v15c0 5.519531 4.476562 10 10 10zm0 0"/><path d="m401 147h14.996094c5.523437 0 10-4.476562 10-10v-14.996094c0-5.523437-4.476563-10-10-10h-14.996094c-5.523438 0-10 4.476563-10 10v14.996094c0 5.523438 4.476562 10 10 10zm0 0"/><path d="m401 87.003906h14.996094c5.523437 0 10-4.476562 10-10v-15.003906c0-5.519531-4.476563-10-10-10h-14.996094c-5.523438 0-10 4.480469-10 10v15.003906c0 5.523438 4.476562 10 10 10zm0 0"/><path d="m401 267h14.996094c5.523437 0 10-4.476562 10-10v-15c0-5.523438-4.476563-10-10-10h-14.996094c-5.523438 0-10 4.476562-10 10v15c0 5.523438 4.476562 10 10 10zm0 0"/><path d="m401 326.996094h14.996094c5.523437 0 10-4.476563 10-10v-14.996094c0-5.523438-4.476563-10-10-10h-14.996094c-5.523438 0-10 4.476562-10 10v14.996094c0 5.523437 4.476562 10 10 10zm0 0"/><path d="m401 386.996094h14.996094c5.523437 0 10-4.480469 10-10v-15c0-5.523438-4.476563-10-10-10h-14.996094c-5.523438 0-10 4.476562-10 10v15c0 5.519531 4.476562 10 10 10zm0 0"/><path d="m116 452h-.238281c-5.523438 0-10 4.476562-10 10s4.476562 10 10 10h.238281c5.523438 0 10-4.476562 10-10s-4.476562-10-10-10zm0 0"/><path d="m315.761719 452c-5.523438 0-10 4.476562-10 10s4.476562 10 10 10h.234375c5.523437 0 10-4.476562 10-10s-4.476563-10-10-10zm0 0"/><path d="m10.234375 492h-.234375c-5.523438 0-10 4.476562-10 9.996094 0 5.523437 4.476562 10 10 10h.234375c5.523437 0 10-4.476563 10-10 0-5.519532-4.476563-9.996094-10-9.996094zm0 0"/><path d="m502 492h-.238281c-5.523438 0-10 4.476562-10 9.996094 0 5.523437 4.476562 10 10 10h.238281c5.523438 0 10-4.476563 10-10 0-5.519532-4.476562-9.996094-10-9.996094zm0 0"/><path d="m473.03125 492h-7.035156v-482c0-5.523438-4.476563-10-10-10h-199.996094c-5.523438 0-10 4.476562-10 10v122.003906h-190c-5.523438 0-10 4.476563-10 10v349.996094h-7.03125c-5.523438 0-10 4.476562-10 9.996094 0 5.523437 4.472656 10 10 10h434.0625c5.523438 0 10-4.476563 10-10 0-5.519532-4.476562-9.996094-10-9.996094zm-407.03125-20h21.035156c5.519532 0 10-4.476562 10-10s-4.480468-10-10-10h-21.035156v-299.996094h180v339.996094h-20v-50c0-5.519531-4.476562-10-10-10h-60c-5.523438 0-10 4.480469-10 10v50h-80zm100 20v-40h40v40zm200 0v-40h39.996094v40zm79.996094 0h-20v-50c0-5.519531-4.476563-10-10-10h-59.996094c-5.523438 0-10 4.480469-10 10v50h-80v-20h21.03125c5.523438 0 10-4.476562 10-10s-4.476562-10-10-10h-21.03125v-432h179.996094zm0 0"/></g></svg>